<mxfile host="app.diagrams.net" modified="2024-05-01T07:20:08.626Z" agent="Mozilla/5.0 (Windows NT 10.0; Win64; x64) AppleWebKit/537.36 (KHTML, like Gecko) Chrome/124.0.0.0 Safari/537.36" etag="HFiIlPBQJVJpSUphfqqt" version="24.3.1" type="github">
  <diagram id="prtHgNgQTEPvFCAcTncT" name="Page-1">
    <mxGraphModel dx="1235" dy="669" grid="1" gridSize="10" guides="1" tooltips="1" connect="1" arrows="1" fold="1" page="1" pageScale="1" pageWidth="827" pageHeight="1169" math="0" shadow="0">
      <root>
        <mxCell id="0" />
        <mxCell id="1" parent="0" />
        <mxCell id="nPUlTsxNM5biGulhRmR_-8" value="" style="rounded=0;whiteSpace=wrap;html=1;" vertex="1" parent="1">
          <mxGeometry x="20" width="780" height="320" as="geometry" />
        </mxCell>
        <mxCell id="nPUlTsxNM5biGulhRmR_-4" value="ElementUI" style="rounded=0;whiteSpace=wrap;html=1;fontSize=14;" vertex="1" parent="1">
          <mxGeometry x="210" y="50" width="100" height="50" as="geometry" />
        </mxCell>
        <mxCell id="nPUlTsxNM5biGulhRmR_-5" value="Vue" style="rounded=0;whiteSpace=wrap;html=1;fontSize=14;" vertex="1" parent="1">
          <mxGeometry x="210" y="140" width="100" height="50" as="geometry" />
        </mxCell>
        <mxCell id="nPUlTsxNM5biGulhRmR_-2" value="Flutter" style="rounded=0;whiteSpace=wrap;html=1;fontSize=14;" vertex="1" parent="1">
          <mxGeometry x="500" y="140" width="100" height="50" as="geometry" />
        </mxCell>
        <mxCell id="nPUlTsxNM5biGulhRmR_-9" value="前端" style="rounded=0;whiteSpace=wrap;html=1;fontSize=14;" vertex="1" parent="1">
          <mxGeometry x="20" width="100" height="50" as="geometry" />
        </mxCell>
        <mxCell id="nPUlTsxNM5biGulhRmR_-10" value="" style="rounded=0;whiteSpace=wrap;html=1;fontSize=14;" vertex="1" parent="1">
          <mxGeometry x="20" y="415" width="780" height="340" as="geometry" />
        </mxCell>
        <mxCell id="nPUlTsxNM5biGulhRmR_-11" value="后端" style="rounded=0;whiteSpace=wrap;html=1;fontSize=14;" vertex="1" parent="1">
          <mxGeometry x="20" y="415" width="100" height="50" as="geometry" />
        </mxCell>
        <mxCell id="nPUlTsxNM5biGulhRmR_-12" value="MySQL" style="rounded=0;whiteSpace=wrap;html=1;fontSize=14;" vertex="1" parent="1">
          <mxGeometry x="126" y="600" width="100" height="50" as="geometry" />
        </mxCell>
        <mxCell id="nPUlTsxNM5biGulhRmR_-13" value="SpringBoot" style="rounded=0;whiteSpace=wrap;html=1;fontSize=14;" vertex="1" parent="1">
          <mxGeometry x="362.5" y="472.5" width="100" height="50" as="geometry" />
        </mxCell>
        <mxCell id="nPUlTsxNM5biGulhRmR_-14" value="阿里云OSS" style="rounded=0;whiteSpace=wrap;html=1;fontSize=14;dashed=1;" vertex="1" parent="1">
          <mxGeometry x="670" y="435" width="100" height="50" as="geometry" />
        </mxCell>
        <mxCell id="nPUlTsxNM5biGulhRmR_-27" value="Redis" style="rounded=0;whiteSpace=wrap;html=1;fontSize=14;" vertex="1" parent="1">
          <mxGeometry x="246" y="600" width="100" height="50" as="geometry" />
        </mxCell>
        <mxCell id="nPUlTsxNM5biGulhRmR_-30" value="" style="endArrow=none;html=1;rounded=0;entryX=0.5;entryY=1;entryDx=0;entryDy=0;exitX=0.5;exitY=0;exitDx=0;exitDy=0;edgeStyle=orthogonalEdgeStyle;fontSize=14;" edge="1" parent="1" source="nPUlTsxNM5biGulhRmR_-27" target="nPUlTsxNM5biGulhRmR_-13">
          <mxGeometry width="50" height="50" relative="1" as="geometry">
            <mxPoint x="270" y="575" as="sourcePoint" />
            <mxPoint x="270" y="525" as="targetPoint" />
          </mxGeometry>
        </mxCell>
        <mxCell id="nPUlTsxNM5biGulhRmR_-35" value="" style="html=1;shadow=0;dashed=0;align=center;verticalAlign=middle;shape=mxgraph.arrows2.arrow;dy=0.6;dx=40;direction=north;notch=0;" vertex="1" parent="1">
          <mxGeometry x="300" y="305" width="50" height="130" as="geometry" />
        </mxCell>
        <mxCell id="nPUlTsxNM5biGulhRmR_-37" value="&lt;font style=&quot;font-size: 14px;&quot;&gt;RESTful API&lt;/font&gt;" style="rounded=0;whiteSpace=wrap;html=1;" vertex="1" parent="1">
          <mxGeometry x="360" y="355" width="90" height="30" as="geometry" />
        </mxCell>
        <mxCell id="nPUlTsxNM5biGulhRmR_-38" value="" style="html=1;shadow=0;dashed=0;align=center;verticalAlign=middle;shape=mxgraph.arrows2.arrow;dy=0.6;dx=40;direction=south;notch=0;" vertex="1" parent="1">
          <mxGeometry x="460" y="305" width="50" height="125" as="geometry" />
        </mxCell>
        <mxCell id="nPUlTsxNM5biGulhRmR_-40" value="Shiro" style="rounded=0;whiteSpace=wrap;html=1;fontSize=14;" vertex="1" parent="1">
          <mxGeometry x="366" y="600" width="100" height="50" as="geometry" />
        </mxCell>
        <mxCell id="nPUlTsxNM5biGulhRmR_-41" value="Knife4j" style="rounded=0;whiteSpace=wrap;html=1;fontSize=14;" vertex="1" parent="1">
          <mxGeometry x="486" y="600" width="100" height="50" as="geometry" />
        </mxCell>
        <mxCell id="nPUlTsxNM5biGulhRmR_-43" value="Axios" style="rounded=0;whiteSpace=wrap;html=1;fontSize=14;" vertex="1" parent="1">
          <mxGeometry x="289" y="240" width="100" height="50" as="geometry" />
        </mxCell>
        <mxCell id="nPUlTsxNM5biGulhRmR_-47" value="Dio" style="rounded=0;whiteSpace=wrap;html=1;fontSize=14;" vertex="1" parent="1">
          <mxGeometry x="420" y="240" width="100" height="50" as="geometry" />
        </mxCell>
        <mxCell id="nPUlTsxNM5biGulhRmR_-48" value="" style="endArrow=none;html=1;rounded=0;entryX=0.5;entryY=1;entryDx=0;entryDy=0;exitX=0.5;exitY=0;exitDx=0;exitDy=0;edgeStyle=orthogonalEdgeStyle;" edge="1" parent="1" source="nPUlTsxNM5biGulhRmR_-47" target="nPUlTsxNM5biGulhRmR_-2">
          <mxGeometry width="50" height="50" relative="1" as="geometry">
            <mxPoint x="540" y="230" as="sourcePoint" />
            <mxPoint x="540" y="180" as="targetPoint" />
          </mxGeometry>
        </mxCell>
        <mxCell id="nPUlTsxNM5biGulhRmR_-49" value="" style="endArrow=none;html=1;rounded=0;edgeStyle=orthogonalEdgeStyle;" edge="1" parent="1" source="nPUlTsxNM5biGulhRmR_-5" target="nPUlTsxNM5biGulhRmR_-4">
          <mxGeometry width="50" height="50" relative="1" as="geometry">
            <mxPoint x="250" y="150" as="sourcePoint" />
            <mxPoint x="250" y="100" as="targetPoint" />
          </mxGeometry>
        </mxCell>
        <mxCell id="nPUlTsxNM5biGulhRmR_-51" value="" style="endArrow=none;html=1;rounded=0;entryX=0.5;entryY=1;entryDx=0;entryDy=0;exitX=0.5;exitY=0;exitDx=0;exitDy=0;edgeStyle=orthogonalEdgeStyle;" edge="1" parent="1" source="nPUlTsxNM5biGulhRmR_-43" target="nPUlTsxNM5biGulhRmR_-5">
          <mxGeometry width="50" height="50" relative="1" as="geometry">
            <mxPoint x="250" y="220" as="sourcePoint" />
            <mxPoint x="250" y="170" as="targetPoint" />
          </mxGeometry>
        </mxCell>
        <mxCell id="nPUlTsxNM5biGulhRmR_-53" value="" style="endArrow=none;html=1;rounded=0;entryX=0.5;entryY=1;entryDx=0;entryDy=0;edgeStyle=orthogonalEdgeStyle;exitX=0.5;exitY=0;exitDx=0;exitDy=0;" edge="1" parent="1" source="nPUlTsxNM5biGulhRmR_-12" target="nPUlTsxNM5biGulhRmR_-13">
          <mxGeometry width="50" height="50" relative="1" as="geometry">
            <mxPoint x="170" y="620" as="sourcePoint" />
            <mxPoint x="170" y="570" as="targetPoint" />
          </mxGeometry>
        </mxCell>
        <mxCell id="nPUlTsxNM5biGulhRmR_-55" value="" style="endArrow=none;html=1;rounded=0;entryX=0.5;entryY=1;entryDx=0;entryDy=0;exitX=0.5;exitY=0;exitDx=0;exitDy=0;edgeStyle=orthogonalEdgeStyle;" edge="1" parent="1" source="nPUlTsxNM5biGulhRmR_-40" target="nPUlTsxNM5biGulhRmR_-13">
          <mxGeometry width="50" height="50" relative="1" as="geometry">
            <mxPoint x="500" y="590" as="sourcePoint" />
            <mxPoint x="500" y="540" as="targetPoint" />
            <Array as="points">
              <mxPoint x="413" y="600" />
            </Array>
          </mxGeometry>
        </mxCell>
        <mxCell id="nPUlTsxNM5biGulhRmR_-56" value="" style="endArrow=none;html=1;rounded=0;entryX=0.5;entryY=1;entryDx=0;entryDy=0;exitX=0.5;exitY=0;exitDx=0;exitDy=0;edgeStyle=orthogonalEdgeStyle;" edge="1" parent="1" source="nPUlTsxNM5biGulhRmR_-41" target="nPUlTsxNM5biGulhRmR_-13">
          <mxGeometry width="50" height="50" relative="1" as="geometry">
            <mxPoint x="620" y="590" as="sourcePoint" />
            <mxPoint x="620" y="540" as="targetPoint" />
          </mxGeometry>
        </mxCell>
        <mxCell id="nPUlTsxNM5biGulhRmR_-57" value="MyBatis-Plus" style="rounded=0;whiteSpace=wrap;html=1;fontSize=14;" vertex="1" parent="1">
          <mxGeometry x="602" y="600" width="100" height="50" as="geometry" />
        </mxCell>
        <mxCell id="nPUlTsxNM5biGulhRmR_-59" value="" style="endArrow=none;html=1;rounded=0;entryX=0.5;entryY=1;entryDx=0;entryDy=0;exitX=0.5;exitY=0;exitDx=0;exitDy=0;edgeStyle=orthogonalEdgeStyle;" edge="1" parent="1" source="nPUlTsxNM5biGulhRmR_-57" target="nPUlTsxNM5biGulhRmR_-13">
          <mxGeometry width="50" height="50" relative="1" as="geometry">
            <mxPoint x="710" y="580" as="sourcePoint" />
            <mxPoint x="710" y="530" as="targetPoint" />
          </mxGeometry>
        </mxCell>
        <mxCell id="nPUlTsxNM5biGulhRmR_-60" value="Get Widget" style="rounded=0;whiteSpace=wrap;html=1;fontSize=14;" vertex="1" parent="1">
          <mxGeometry x="500" y="50" width="100" height="50" as="geometry" />
        </mxCell>
        <mxCell id="nPUlTsxNM5biGulhRmR_-62" value="" style="endArrow=none;html=1;rounded=0;entryX=0.5;entryY=1;entryDx=0;entryDy=0;exitX=0.5;exitY=0;exitDx=0;exitDy=0;edgeStyle=orthogonalEdgeStyle;" edge="1" parent="1" source="nPUlTsxNM5biGulhRmR_-2" target="nPUlTsxNM5biGulhRmR_-60">
          <mxGeometry width="50" height="50" relative="1" as="geometry">
            <mxPoint x="550" y="130" as="sourcePoint" />
            <mxPoint x="550" y="80" as="targetPoint" />
          </mxGeometry>
        </mxCell>
      </root>
    </mxGraphModel>
  </diagram>
</mxfile>
